<?xml version="1.0" encoding="UTF-8" standalone="no"?>
<svg fill-opacity="1" color-rendering="auto" color-interpolation="auto" text-rendering="auto" stroke="#000000" stroke-linecap="square" width="273" stroke-miterlimit="10" shape-rendering="auto" stroke-opacity="1" fill="#000000" stroke-dasharray="none" font-weight="normal" stroke-width="1" height="133" font-family="Dialog" font-style="normal" stroke-linejoin="miter" font-size="12px" stroke-dashoffset="0" image-rendering="auto" version="1.1" id="svg10" xmlns="http://www.w3.org/2000/svg" xmlns:svg="http://www.w3.org/2000/svg"><span xmlns="" id="uas-port"/>
  <!--Generated by Marvin with Batik SVG Generator-->
  <defs id="genericDefs">
    <defs id="4258971416-defs1">
      <clipPath clipPathUnits="userSpaceOnUse" id="42589714367-clipPath1">
        <path d="M 0,0 H 345 V 125 H 0 Z" id="path1"/>
      </clipPath>
      <clipPath clipPathUnits="userSpaceOnUse" id="42589714445-clipPath1">
        <path d="m -298.998,-53.6794 h 345 v 125 h -345 z" id="path2"/>
      </clipPath>
    </defs>
  </defs>
  <g id="g1">
    <g text-rendering="geometricPrecision" id="g4" transform="matrix(1,0,0,-1,-66,190.74941)">
      <path d="m 76.473,78.4179 v 0 l 59.9457,34.6096 c 0.6966,0.4023 0.9353,1.2931 0.5331,1.9898 -0.4022,0.6967 -1.2931,0.9355 -1.9898,0.5332 v 0 L 75.0163,80.9409 c -0.6966,-0.4023 -0.9354,-1.2931 -0.5331,-1.9898 0.4022,-0.6967 1.2931,-0.9354 1.9898,-0.5332 z" stroke="none" clip-path="url(#42589714367-clipPath1)" id="path4"/>
    </g>
    <g text-rendering="geometricPrecision" id="g5" transform="matrix(1,0,0,-1,-5.8516949,86.935851)">
      <path d="m 74.288,79.6794 v 0 -69.2193 c 0,-0.8045 0.6522,-1.4566 1.4567,-1.4566 0.8044,0 1.4566,0.6521 1.4566,1.4566 v 0 69.2193 c 0,0.8045 -0.6522,1.4566 -1.4566,1.4566 -0.8045,0 -1.4567,-0.6521 -1.4567,-1.4566 z" stroke="none" clip-path="url(#42589714367-clipPath1)" id="path5"/>
    </g>
    <g text-rendering="geometricPrecision" id="g6" transform="matrix(1,0,0,-1,-66,190.74941)">
      <path d="m 134.962,113.0275 v 0 l 59.9457,-34.6096 c 0.6967,-0.4022 1.5875,-0.1635 1.9898,0.5332 0.4022,0.6967 0.1635,1.5875 -0.5332,1.9898 v 0 l -59.9456,34.6096 c -0.6967,0.4023 -1.5876,0.1635 -1.9899,-0.5332 -0.4022,-0.6967 -0.1635,-1.5875 0.5332,-1.9898 z" stroke="none" clip-path="url(#42589714367-clipPath1)" id="path6"/>
    </g>
    <g text-rendering="geometricPrecision" id="g7" transform="matrix(1,0,0,-1,-66,190.74941)">
      <path d="m 196.3643,78.4179 v 0 l 59.9457,34.6096 c 0.6967,0.4023 0.9354,1.2931 0.5331,1.9898 -0.4022,0.6967 -1.2931,0.9355 -1.9898,0.5332 v 0 L 194.9077,80.9409 c -0.6967,-0.4023 -0.9354,-1.2931 -0.5332,-1.9898 0.4022,-0.6967 1.2931,-0.9354 1.9898,-0.5332 z" stroke="none" clip-path="url(#42589714367-clipPath1)" id="path7"/>
    </g>
    <g text-rendering="geometricPrecision" id="g8" transform="matrix(1,0,0,-1,-66,190.74941)">
      <path d="m 256.1148,97.767 c -0.6967,0.4022 -0.9354,1.2931 -0.5331,1.9898 0.4022,0.6966 1.2931,0.9354 1.9898,0.5331 l 32.0879,-18.526 c 0.6967,-0.4022 0.9354,-1.2931 0.5332,-1.9898 -0.4022,-0.6967 -1.2931,-0.9354 -1.9898,-0.5331 z m -1.2615,15.2605 c -0.6967,0.4023 -0.9354,1.2931 -0.5331,1.9898 0.4022,0.6967 1.2931,0.9355 1.9898,0.5332 l 39.6421,-22.8874 c 0.6967,-0.4022 0.9354,-1.2931 0.5332,-1.9898 -0.4023,-0.6967 -1.2931,-0.9354 -1.9898,-0.5331 z" stroke="none" clip-path="url(#42589714367-clipPath1)" id="path8"/>
    </g>
    <g text-rendering="geometricPrecision" font-size="43px" font-family="sans-serif" transform="matrix(1,0,0,-1,232.998,137.07001)" id="g9">
      <text x="0" xml:space="preserve" y="42" clip-path="url(#42589714445-clipPath1)" stroke="none" id="text8">O</text>
    </g>
  </g>
</svg>