<?xml version="1.0" encoding="UTF-8"?>
<!DOCTYPE svg PUBLIC "-//W3C//DTD SVG 1.0//EN" "http://www.w3.org/TR/2001/REC-SVG-20010904/DTD/svg10.dtd">
<svg fill-opacity="1" xmlns:xlink="http://www.w3.org/1999/xlink" color-rendering="auto" color-interpolation="auto" text-rendering="auto" stroke="black" stroke-linecap="square" width="205" stroke-miterlimit="10" shape-rendering="auto" stroke-opacity="1" fill="black" stroke-dasharray="none" font-weight="normal" stroke-width="1" height="60" xmlns="http://www.w3.org/2000/svg" font-family="'Dialog'" font-style="normal" stroke-linejoin="miter" font-size="12px" stroke-dashoffset="0" image-rendering="auto"><span xmlns="" id="uas-port"/><!--Generated by Marvin with Batik SVG Generator--><defs id="genericDefs"/><g><defs id="1338346352305-defs1"><clipPath clipPathUnits="userSpaceOnUse" id="1338346352852-clipPath1"><path d="M0 0 L205 0 L205 60 L0 60 L0 0 Z"/></clipPath></defs><g text-rendering="geometricPrecision"><path d="M13.7634 42.9497 C13.082 43.3431 12.8485 44.2144 13.2419 44.8958 C13.6353 45.5772 14.5066 45.8107 15.188 45.4173 L73.8165 11.5681 C74.4979 11.1747 74.7313 10.3034 74.3379 9.622 C73.9445 8.9406 73.0733 8.7072 72.3919 9.1006 ZM19.9178 53.6095 C19.2364 54.0029 19.0029 54.8742 19.3963 55.5555 C19.7897 56.2369 20.661 56.4704 21.3424 56.077 L72.5827 26.4934 C73.2641 26.1 73.4976 25.2287 73.1042 24.5473 C72.7108 23.8659 71.8395 23.6325 71.1581 24.0259 Z" stroke="none" clip-path="url(#1338346352852-clipPath1)"/></g><g text-rendering="geometricPrecision"><path d="M73.8165 9.1006 L73.8165 9.1006 L132.445 42.9497 C133.1264 43.3431 133.3598 44.2144 132.9664 44.8958 C132.573 45.5772 131.7017 45.8107 131.0203 45.4173 L131.0203 45.4173 L72.3919 11.5681 C71.7105 11.1747 71.477 10.3034 71.8704 9.622 C72.2638 8.9406 73.1351 8.7072 73.8165 9.1006 Z" stroke="none" clip-path="url(#1338346352852-clipPath1)"/></g><g text-rendering="geometricPrecision"><path d="M131.0203 42.9497 L131.0203 42.9497 L189.6488 9.1006 C190.3302 8.7072 191.2015 8.9406 191.5949 9.622 C191.9883 10.3034 191.7548 11.1747 191.0734 11.5681 L191.0734 11.5681 L132.445 45.4173 C131.7636 45.8107 130.8923 45.5772 130.4989 44.8958 C130.1055 44.2144 130.3389 43.3431 131.0203 42.9497 Z" stroke="none" clip-path="url(#1338346352852-clipPath1)"/></g></g></svg>