<?xml version="1.0" encoding="UTF-8" standalone="no"?>
<svg xmlns:dc="http://purl.org/dc/elements/1.1/" xmlns:cc="http://creativecommons.org/ns#" xmlns:rdf="http://www.w3.org/1999/02/22-rdf-syntax-ns#" xmlns:svg="http://www.w3.org/2000/svg" xmlns="http://www.w3.org/2000/svg" xml:space="preserve" enable-background="new 0 0 1818 921" viewBox="0 0 1818 921" height="921px" width="1818px" y="0px" x="0px" id="Layer_1" version="1.1"><metadata id="metadata51"><rdf:RDF><cc:Work rdf:about=""><dc:format>image/svg+xml</dc:format><dc:type rdf:resource="http://purl.org/dc/dcmitype/StillImage"/><dc:title/></cc:Work></rdf:RDF></metadata><defs id="defs49"/><g id="g3"><g id="g5"><path style="clip-rule:evenodd;fill-rule:evenodd" id="path13" d="m 1014.1824,98.242 c 5.955,0 11.555,0 17.52,0 0,18.169 0,36.102 0,54.395 23.08,0 45.795,0 69.059,0 0,-18.046 0,-36.101 0,-54.392 6.141,0 11.74,0 17.703,0 0,44.386 0,88.762 0,133.447 -5.715,0 -11.432,0 -17.521,0 0,-20.771 0,-41.371 0,-62.33 -23.08,0 -45.793,0 -69.057,0 0,20.713 0,41.433 0,62.391 -6.141,0 -11.74,0 -17.703,0 -10e-4,-44.382 -10e-4,-88.759 -10e-4,-133.511 z"/><path style="clip-rule:evenodd;fill-rule:evenodd" id="path15" d="m 1422.8104,231.758 c -5.955,0 -11.555,0 -17.52,0 0,-20.835 0,-41.434 0,-62.394 -23.079,0 -45.794,0 -69.056,0 0,20.71 0,41.431 0,62.389 -6.141,0 -11.741,0 -17.705,0 0,-44.38 0,-88.757 0,-133.444 5.711,0 11.428,0 17.518,0 0,18.1 0,36.034 0,54.327 23.08,0 45.795,0 69.058,0 0,-18.043 0,-36.099 0,-54.39 6.142,0 11.742,0 17.705,0 0,44.383 0,88.76 0,133.512 z"/><path style="clip-rule:evenodd;fill-rule:evenodd" id="path17" d="m 118.178,534.53755 c -6.502,0 -12.103,0 -17.937,0 0,-44.504 0,-88.763 0,-133.387 5.71,0 11.429,0 17.701,0 0,18.047 0,36.102 0,54.391 23.141,0 45.737,0 68.881,0 0,-18.049 0,-36.104 0,-54.454 6.261,0 11.978,0 17.937,0 0,44.45 0,88.709 0,133.332 -5.712,0 -11.432,0 -17.703,0 0,-20.716 0,-41.437 0,-62.392 -23.14,0 -45.736,0 -68.879,0 0,20.716 0,41.437 0,62.51 z"/><path style="clip-rule:evenodd;fill-rule:evenodd" id="path19" d="m 1719.639,534.56805 c -5.953,0 -11.553,0 -17.518,0 0,-20.835 0,-41.434 0,-62.394 -23.08,0 -45.794,0 -69.057,0 0,20.709 0,41.43 0,62.389 -6.14,0 -11.74,0 -17.704,0 0,-44.38 0,-88.756 0,-133.443 5.709,0 11.426,0 17.516,0 0,18.099 0,36.032 0,54.326 23.081,0 45.795,0 69.059,0 0,-18.042 0,-36.097 0,-54.389 6.141,0 11.74,0 17.704,0 0,44.381 0,88.758 0,133.511 z"/><path style="clip-rule:evenodd;fill-rule:evenodd" id="path21" d="m 1118.4604,837.76 c -5.947,0 -11.547,0 -17.512,0 0,-20.833 0,-41.432 0,-62.394 -23.08,0 -45.793,0 -69.057,0 0,20.703 0,41.424 0,62.385 -6.139,0 -11.738,0 -17.705,0 0,-44.374 0,-88.751 0,-133.439 5.703,0 11.42,0 17.51,0 0,18.093 0,36.026 0,54.322 23.08,0 45.795,0 69.059,0 0,-18.036 0,-36.092 0,-54.386 6.141,0 11.74,0 17.705,0 0,44.377 0,88.753 0,133.512 z"/><path style="clip-rule:evenodd;fill-rule:evenodd" id="path23" d="m 1318.5289,704.242 c 5.956,0 11.556,0 17.521,0 0,18.169 0,36.103 0,54.396 23.081,0 45.795,0 69.058,0 0,-18.047 0,-36.103 0,-54.393 6.142,0 11.741,0 17.703,0 0,44.387 0,88.763 0,133.447 -5.716,0 -11.433,0 -17.521,0 0,-20.772 0,-41.371 0,-62.33 -23.08,0 -45.794,0 -69.057,0 0,20.714 0,41.435 0,62.392 -6.141,0 -11.74,0 -17.703,0 -10e-4,-44.384 -10e-4,-88.761 -10e-4,-133.512 z"/><path style="clip-rule:evenodd;fill-rule:evenodd" id="path25" d="m 511.889,438.04 c -5.426,1.317 -10.406,2.705 -15.473,3.601 -0.968,0.171 -2.918,-1.36 -3.336,-2.502 -7.076,-19.299 -22.453,-26.36 -43.524,-23.611 -16.625,2.169 -30.437,16.812 -33.739,34.178 -2.675,14.066 -2.419,27.803 1.404,41.388 6.75,23.977 30.4,33.669 51.563,28.325 14.384,-3.631 22.696,-13.567 26.938,-27.195 1.174,-3.771 2.201,-5.25 6.396,-3.594 4.02,1.587 8.442,2.153 12.922,3.224 -6.046,22.017 -18.229,37.487 -40.717,43.222 -10.402,2.652 -20.809,2.083 -31.294,0.311 -25.854,-4.372 -40.78,-26.496 -45.117,-49.582 -3.099,-16.494 -2.826,-32.646 3.126,-48.412 8.177,-21.661 24.132,-33.786 46.802,-37.633 12.297,-2.087 24.145,-1.093 35.601,3.907 15.017,6.553 23.639,18.479 28.448,34.373 z"/><path style="clip-rule:evenodd;fill-rule:evenodd" id="path27" d="m 813.791,438.01337 c -5.351,1.295 -10.333,2.67899 -15.402,3.572 -0.959,0.16899 -2.89,-1.38 -3.313,-2.527 -7.066,-19.166 -22.293,-26.359 -43.547,-23.584 -16.515,2.157 -30.421,16.783 -33.716,34.20299 -2.662,14.06901 -2.431,27.81 1.423,41.385 6.787,23.906 29.906,33.467 51.108,28.453 14.562,-3.443 23.135,-13.5 27.392,-27.368 1.172,-3.817 2.25,-5.201 6.409,-3.568 4.023,1.58 8.442,2.15301 12.878,3.214 -4.785,17.887 -13.785,31.94001 -30.593,39.746 -13.277,6.167 -27.263,6.612 -41.414,3.72401 -27.064,-5.52301 -39.662,-24.26 -45.031,-49.553 -3.487,-16.425 -2.898,-32.638 3.06,-48.39601 8.186,-21.64999 24.149,-33.75 46.82,-37.61899 13.548,-2.312 26.537,-0.93401 38.707,5.375 13.323,6.90499 21.124,18.30899 25.219,32.943 z"/><path style="clip-rule:evenodd;fill-rule:evenodd" id="path29" d="m 1608.884,461.70105 c 0,4.226 0,8.041 0,12.223 -59.477,0 -118.839,0 -178.543,0 0,-3.97 0,-8.019 0,-12.223 59.549,0 119.028,0 178.543,0 z"/><path style="clip-rule:evenodd;fill-rule:evenodd" id="path31" d="m 212.243,474.02505 c 0,-4.321 0,-8.255 0,-12.425 58.817,0 117.394,0 176.364,0 0,3.987 0,8.038 0,12.425 -58.607,0 -117.302,0 -176.364,0 z"/><path style="clip-rule:evenodd;fill-rule:evenodd" id="path33" d="m 1297.763,461.60605 c 0,4.302 0,8.235 0,12.413 -56.811,0 -113.387,0 -170.362,0 0,-3.967 0,-8.017 0,-12.413 56.584,0 113.28,0 170.362,0 z"/><path style="clip-rule:evenodd;fill-rule:evenodd" id="path39" d="m 994.619,474.01105 c -56.551,0 -112.794,0 -169.328,0 0,-4.116 0,-8.052 0,-12.397 56.223,0 112.584,0 169.328,0 0,3.848 0,7.898 0,12.397 z"/><g transform="translate(0,6.8195475)" id="g72"><path style="clip-rule:evenodd;fill-rule:evenodd" d="m 691.76,423.334 c 0,4.313 0,8.246 0,12.419 -56.481,0 -112.724,0 -169.364,0 0,-3.978 0,-8.028 0,-12.419 56.264,0 112.626,0 169.364,0 z" id="path35"/><path style="clip-rule:evenodd;fill-rule:evenodd" d="m 691.764,455.337 c 0,4.303 0,8.236 0,12.413 -56.478,0 -112.721,0 -169.363,0 0,-3.966 0,-8.015 0,-12.413 56.252,0 112.614,0 169.363,0 z" id="path37"/><path style="clip-rule:evenodd;fill-rule:evenodd" d="m 522.224,498.652 c 0,-3.934 0,-7.535 0,-11.392 56.465,0 112.708,0 169.364,0 0,3.6 0,7.314 0,11.392 -56.217,0 -112.581,0 -169.364,0 z" id="path41"/></g><path style="clip-rule:evenodd;fill-rule:evenodd" id="path43" d="m 1060.1299,234.223 c 4.264,0 8.197,0 12.387,0 0,50.131 0,100.042 0,150.364 -3.926,0 -7.979,0 -12.387,0 0,-49.882 0,-99.911 0,-150.364 z"/><path style="clip-rule:evenodd;fill-rule:evenodd" id="path45" d="m 1376.3794,385.5875 c -3.977,0 -7.578,0 -11.419,0 0,-50.813 0,-101.391 0,-152.365 3.645,0 7.361,0 11.419,0 0,50.594 0,101.291 0,152.365 z"/><path id="path27-7" d="m 1122.683,438.01336 c -5.351,1.295 -10.333,2.679 -15.402,3.572 -0.959,0.169 -2.89,-1.38 -3.313,-2.527 -7.066,-19.166 -22.293,-26.359 -43.547,-23.584 -16.515,2.157 -30.421,16.783 -33.716,34.203 -2.662,14.069 -2.431,27.81 1.423,41.385 6.787,23.90601 29.906,33.46701 51.108,28.45301 14.562,-3.443 23.135,-13.5 27.392,-27.36801 1.172,-3.817 2.25,-5.201 6.409,-3.568 4.023,1.58 8.442,2.153 12.878,3.214 -4.785,17.88701 -13.785,31.94001 -30.593,39.74601 -13.277,6.167 -27.263,6.612 -41.414,3.724 -27.064,-5.523 -39.662,-24.26 -45.031,-49.55301 -3.487,-16.425 -2.898,-32.638 3.06,-48.396 8.186,-21.65 24.149,-33.75 46.82,-37.619 13.548,-2.312 26.537,-0.934 38.707,5.375 13.323,6.905 21.124,18.309 25.219,32.943 z" style="clip-rule:evenodd;fill-rule:evenodd"/><path id="path27-8" d="m 1427.0295,438.01336 c -5.351,1.295 -10.333,2.679 -15.402,3.572 -0.959,0.169 -2.89,-1.38 -3.313,-2.527 -7.066,-19.166 -22.293,-26.359 -43.547,-23.584 -16.515,2.157 -30.421,16.783 -33.716,34.203 -2.662,14.069 -2.431,27.81 1.423,41.385 6.787,23.90601 29.906,33.46701 51.108,28.45301 14.562,-3.443 23.135,-13.5 27.392,-27.36801 1.172,-3.817 2.25,-5.201 6.409,-3.568 4.023,1.58 8.442,2.153 12.878,3.214 -4.785,17.88701 -13.785,31.94001 -30.593,39.74601 -13.277,6.167 -27.263,6.612 -41.414,3.724 -27.064,-5.523 -39.662,-24.26 -45.031,-49.55301 -3.487,-16.425 -2.898,-32.638 3.06,-48.396 8.186,-21.65 24.149,-33.75 46.82,-37.619 13.548,-2.312 26.537,-0.934 38.707,5.375 13.323,6.905 21.124,18.309 25.219,32.943 z" style="clip-rule:evenodd;fill-rule:evenodd"/><path style="clip-rule:evenodd;fill-rule:evenodd" id="path43-7" d="m 1060.1299,545.47152 c 4.264,0 8.197,0 12.387,0 0,50.131 0,100.042 0,150.364 -3.926,0 -7.979,0 -12.387,0 0,-49.882 0,-99.911 0,-150.364 z"/><path style="clip-rule:evenodd;fill-rule:evenodd" id="path43-5" d="m 1364.4764,545.47152 c 4.264,0 8.197,0 12.387,0 0,50.131 0,100.042 0,150.364 -3.926,0 -7.979,0 -12.387,0 0,-49.882 0,-99.911 0,-150.364 z"/></g></g></svg>