<?xml version="1.0" encoding="UTF-8" standalone="no"?>
<!-- Generator: Adobe Illustrator 19.2.1, SVG Export Plug-In . SVG Version: 6.00 Build 0)  -->

<svg
   version="1.1"
   id="Слой_1"
   x="0px"
   y="0px"
   viewBox="0 0 353.1 207.6"
   style="enable-background:new 0 0 353.1 207.6;"
   xml:space="preserve"
   sodipodi:docname="but-1-ene_structural.svg"
   inkscape:version="1.2.2 (b0a8486541, 2022-12-01)"
   xmlns:inkscape="http://www.inkscape.org/namespaces/inkscape"
   xmlns:sodipodi="http://sodipodi.sourceforge.net/DTD/sodipodi-0.dtd"
   xmlns="http://www.w3.org/2000/svg"
   xmlns:svg="http://www.w3.org/2000/svg"><defs
   id="defs285" /><sodipodi:namedview
   id="namedview283"
   pagecolor="#ffffff"
   bordercolor="#000000"
   borderopacity="0.25"
   inkscape:showpageshadow="2"
   inkscape:pageopacity="0.0"
   inkscape:pagecheckerboard="0"
   inkscape:deskcolor="#d1d1d1"
   showgrid="false"
   inkscape:zoom="3.7331405"
   inkscape:cx="176.52697"
   inkscape:cy="104.06787"
   inkscape:window-width="1920"
   inkscape:window-height="1011"
   inkscape:window-x="0"
   inkscape:window-y="0"
   inkscape:window-maximized="1"
   inkscape:current-layer="Слой_1" />
<style
   type="text/css"
   id="style232">
	.st0{fill:#2A5FFF;}
</style>
<g
   id="g270">
	<rect
   x="79.1"
   y="123.2"
   width="33.6"
   height="2.4"
   id="rect234" />
	<rect
   x="79.1"
   y="110.4"
   width="33.6"
   height="2.4"
   id="rect236" />
	<rect
   x="42"
   y="73.9"
   transform="matrix(0.8661 -0.4998 0.4998 0.8661 -38.0818 33.3177)"
   width="2.4"
   height="27.8"
   id="rect238" />
	<polygon
   points="35.7,158.6 37.8,159.9 51.3,136.5 49.2,135.3  "
   id="polygon240" />
	<rect
   x="147.8"
   y="134.6"
   transform="matrix(0.8654 -0.501 0.501 0.8654 -54.0131 94.5243)"
   width="2.4"
   height="26.4"
   id="rect242" />
	<rect
   x="135.4"
   y="85.6"
   transform="matrix(0.5003 -0.8658 0.8658 0.5003 -0.2701 173.0332)"
   width="28.8"
   height="2.4"
   id="rect244" />
	<rect
   x="230.8"
   y="55.2"
   width="33.6"
   height="2.4"
   id="rect246" />
	<path
   d="M66.5,127.5c-2.1,1.8-5.4,1.8-5.4,1.8c-2.9,0-5-1.4-5-1.4c-2.1-1.4-3.2-4.1-3.2-4.1c-1-2.6-1-6.2-1-6.2c0-3.3,1-5.9,1-5.9   c1.1-2.6,3.2-4,3.2-4c2.1-1.4,5-1.4,5-1.4c3.1,0,5,1.5,5,1.5c2,1.5,2.9,4.5,2.9,4.5l3.7-0.9c-1.2-4.1-4.1-6.2-4.1-6.2   c-3-2.1-7.4-2.1-7.4-2.1c-3.8,0-6.9,1.8-6.9,1.8c-3,1.8-4.7,5.1-4.7,5.1c-1.7,3.3-1.7,7.8-1.7,7.8c0,4.7,1.6,8,1.6,8   c1.6,3.4,4.6,5.2,4.6,5.2c3,1.8,7.1,1.8,7.1,1.8c3,0,5.5-1.1,5.5-1.1c2.5-1.2,4.2-3.3,4.2-3.3c1.7-2.2,2.4-5.1,2.4-5.1l-3.7-0.9   C68.7,125.6,66.5,127.5,66.5,127.5z"
   id="path248" />
	<path
   d="M144.4,123l-3.7-0.9c-0.8,3.5-3,5.4-3,5.4c-2.2,1.8-5.5,1.8-5.5,1.8c-2.9,0-5-1.4-5-1.4c-2-1.4-3.1-4.1-3.1-4.1   c-1.1-2.6-1.1-6.2-1.1-6.2c0-3.3,1.1-5.9,1.1-5.9c1.1-2.6,3.2-4,3.2-4c2.1-1.4,5.1-1.4,5.1-1.4c3,0,5,1.5,5,1.5   c2,1.5,2.8,4.5,2.8,4.5l3.7-0.9c-1.1-4.1-4.1-6.2-4.1-6.2c-3-2.1-7.4-2.1-7.4-2.1c-3.9,0-6.9,1.8-6.9,1.8c-3,1.8-4.7,5.1-4.7,5.1   c-1.7,3.3-1.7,7.8-1.7,7.8c0,4.7,1.6,8,1.6,8c1.6,3.4,4.6,5.2,4.6,5.2c3,1.8,7.1,1.8,7.1,1.8c3.1,0,5.6-1.1,5.6-1.1   c2.5-1.2,4.2-3.3,4.2-3.3C143.7,125.9,144.4,123,144.4,123z"
   id="path250" />
	<polygon
   points="18,56.7 32.1,56.7 32.1,70.2 35.9,70.2 35.9,41.6 32.1,41.6 32.1,53.3 18,53.3 18,41.6 14.2,41.6 14.2,70.2    18,70.2  "
   id="polygon252" />
	<polygon
   points="32.1,176.5 18,176.5 18,164.8 14.2,164.8 14.2,193.4 18,193.4 18,179.9 32.1,179.9 32.1,193.4 35.9,193.4    35.9,164.8 32.1,164.8  "
   id="polygon254" />
	<polygon
   points="174.3,176.5 160.3,176.5 160.3,164.8 156.5,164.8 156.5,193.4 160.3,193.4 160.3,179.9 174.3,179.9 174.3,193.4    178.1,193.4 178.1,164.8 174.3,164.8  "
   id="polygon256" />
	<path
   d="M173.3,65.9c-2.2,1.8-5.5,1.8-5.5,1.8c-2.9,0-5-1.4-5-1.4c-2.1-1.4-3.2-4.1-3.2-4.1c-1.1-2.6-1.1-6.2-1.1-6.2   c0-3.3,1.1-5.9,1.1-5.9c1.1-2.6,3.2-4,3.2-4c2.1-1.4,5.1-1.4,5.1-1.4c3,0,5,1.5,5,1.5c2,1.5,2.8,4.5,2.8,4.5l3.7-0.9   c-1.1-4.1-4.1-6.2-4.1-6.2c-3-2.1-7.4-2.1-7.4-2.1c-3.9,0-6.9,1.8-6.9,1.8c-3,1.8-4.7,5.1-4.7,5.1c-1.7,3.3-1.7,7.8-1.7,7.8   c0,4.7,1.6,8,1.6,8c1.6,3.4,4.6,5.2,4.6,5.2c3,1.8,7.1,1.8,7.1,1.8c3,0,5.5-1.2,5.5-1.2c2.5-1.1,4.2-3.3,4.2-3.3   c1.7-2.2,2.3-5.1,2.3-5.1l-3.7-0.9C175.4,64,173.3,65.9,173.3,65.9z"
   id="path258" />
	<polygon
   points="201.8,53.6 187.8,53.6 187.8,41.8 183.9,41.8 183.9,70.5 187.8,70.5 187.8,57 201.8,57 201.8,70.5 205.6,70.5    205.6,41.8 201.8,41.8  "
   id="polygon260" />
	<path
   d="M214.2,73c0.7-0.7,1.7-1.6,1.7-1.6l1.9-1.6c2.5-2.1,3.8-3.9,3.8-3.9c1.3-1.8,1.3-3.7,1.3-3.7c0-1.5-0.8-2.8-0.8-2.8   c-0.8-1.2-2.2-2-2.2-2c-1.4-0.7-3.3-0.7-3.3-0.7c-1.8,0-3.3,0.7-3.3,0.7c-1.4,0.7-2.2,2-2.2,2c-0.8,1.3-1,3-1,3l2.6,0.4   c0.1-2,1.1-3,1.1-3c1-1,2.8-1,2.8-1c1,0,1.9,0.4,1.9,0.4c0.8,0.4,1.4,1.2,1.4,1.2c0.5,0.8,0.5,1.8,0.5,1.8c0,1.4-1,2.8-1,2.8   c-1.1,1.5-3.4,3.4-3.4,3.4l-1.6,1.3c-2.4,2-3.6,3.6-3.6,3.6c-1.2,1.7-1.2,3.4-1.2,3.4h13.3v-2.4h-9.8C213.5,73.7,214.2,73,214.2,73   z"
   id="path262" />
	<path
   d="M289.4,65.9c-2.2,1.8-5.5,1.8-5.5,1.8c-2.9,0-5-1.4-5-1.4c-2.1-1.4-3.2-4.1-3.2-4.1c-1.1-2.6-1.1-6.2-1.1-6.2   c0-3.3,1.1-5.9,1.1-5.9c1.1-2.6,3.2-4,3.2-4c2.1-1.4,5.1-1.4,5.1-1.4c3,0,5,1.5,5,1.5c2,1.5,2.8,4.5,2.8,4.5l3.7-0.9   c-1.1-4.1-4.1-6.2-4.1-6.2c-3-2.1-7.4-2.1-7.4-2.1c-3.9,0-6.9,1.8-6.9,1.8c-3,1.8-4.7,5.1-4.7,5.1c-1.7,3.3-1.7,7.8-1.7,7.8   c0,4.7,1.6,8,1.6,8c1.6,3.4,4.6,5.2,4.6,5.2c3,1.8,7.1,1.8,7.1,1.8c3,0,5.5-1.2,5.5-1.2c2.5-1.1,4.2-3.3,4.2-3.3   c1.7-2.2,2.3-5.1,2.3-5.1l-3.7-0.9C291.6,64,289.4,65.9,289.4,65.9z"
   id="path264" />
	<polygon
   points="318,53.6 304,53.6 304,41.8 300.1,41.8 300.1,70.5 304,70.5 304,57 318,57 318,70.5 321.8,70.5 321.8,41.8    318,41.8  "
   id="polygon266" />
	<path
   d="M338.5,68.7c-0.4-1-1.3-1.7-1.3-1.7c-0.8-0.7-2-1-2-1v0c1.4-0.6,2.2-1.7,2.2-1.7c0.8-1.1,0.8-2.5,0.8-2.5   c0-1.5-0.7-2.7-0.7-2.7c-0.7-1.2-2-1.8-2-1.8c-1.3-0.6-3.1-0.6-3.1-0.6c-1.6,0-3,0.6-3,0.6c-1.3,0.6-2.2,1.8-2.2,1.8   c-0.9,1.2-1.2,2.8-1.2,2.8l2.5,0.4c0.3-1.7,1.3-2.7,1.3-2.7c1-1,2.5-1,2.5-1c1.6,0,2.5,0.8,2.5,0.8c0.9,0.8,0.9,2.3,0.9,2.3   c0,1.6-1.2,2.5-1.2,2.5c-1.1,0.9-3.4,0.9-3.4,0.9h-0.5l-0.3,2h2.1c1.2,0,2,0.4,2,0.4c0.9,0.5,1.4,1.3,1.4,1.3c0.5,0.9,0.5,2,0.5,2   c0,1.2-0.5,2.1-0.5,2.1c-0.5,1-1.4,1.5-1.4,1.5c-0.9,0.5-2.1,0.5-2.1,0.5c-1.6,0-2.6-1-2.6-1c-1-1-1.4-3-1.4-3l-2.5,0.4   c0.2,1.7,1.1,3,1.1,3c0.9,1.3,2.3,2,2.3,2c1.4,0.6,3.1,0.6,3.1,0.6c2,0,3.5-0.8,3.5-0.8c1.5-0.8,2.4-2.2,2.4-2.2   C339,72.8,339,71,339,71C339,69.8,338.5,68.7,338.5,68.7z"
   id="path268" />
</g>

</svg>
