<?xml version="1.0" encoding="UTF-8" standalone="no"?>
<svg version="1.1" viewBox="0 0 205.319 137.2" width="205.319pt" height="137.2pt" id="svg1883" xmlns="http://www.w3.org/2000/svg" xmlns:svg="http://www.w3.org/2000/svg" xmlns:rdf="http://www.w3.org/1999/02/22-rdf-syntax-ns#" xmlns:cc="http://creativecommons.org/ns#" xmlns:dc="http://purl.org/dc/elements/1.1/">
  <title id="title1831">Valence structural formula of 1,3-butadiene.eps</title>
  <defs id="defs1836">
    <clipPath id="Clip0">
      <path d="M 0,0 H 185.319 V 117.2 H 0 Z" id="path1833"/>
    </clipPath>
  </defs>
  <g id="Hintergrund" transform="translate(244.09497,73.16198)">
    <g style="fill:none;stroke:none" transform="translate(-234.09487,-63.161981)" clip-rule="evenodd" clip-path="url(#Clip0)" id="Gruppe2">
      <g style="fill:none;stroke:none" transform="translate(33.5562,39.7)" id="Gruppe1">
        <path d="M 14.7344,5.64062 C 14.0469,1.875 11.8438,0 8,0 5.64062,0 3.75,0.75 2.45312,2.1875 0.875,3.875 0,6.3125 0,9.07812 0,11.8906 0.890625,14.3125 2.53125,15.9687 3.89062,17.3594 5.625,18 7.90625,18 12.1719,18 14.5781,15.7187 15.0938,11.1875 H 12.7969 C 12.6094,12.3594 12.3594,13.1562 12,13.8437 11.2812,15.25 9.79688,16.0469 7.92188,16.0469 c -3.48438,0 -5.6875,-2.7188 -5.6875,-6.9844 0,-4.39063 2.09374,-7.09375 5.5,-7.09375 1.42187,0 2.73442,0.40625 3.45312,1.09375 0.6563,0.57812 1.0156,1.28125 1.2656,2.57812 z" style="fill:#000000;fill-rule:nonzero;stroke:none" transform="translate(0,19.85)" id="path1838"/>
        <path d="M 14.7344,5.64062 C 14.0469,1.875 11.8438,0 8,0 5.64062,0 3.75,0.75 2.45312,2.1875 0.875,3.875 0,6.3125 0,9.07812 0,11.8906 0.890625,14.3125 2.53125,15.9688 3.89062,17.3594 5.625,18 7.90625,18 12.1719,18 14.5781,15.7188 15.0938,11.1875 H 12.7969 C 12.6094,12.3594 12.3594,13.1562 12,13.8438 11.2812,15.25 9.79688,16.0469 7.92188,16.0469 c -3.48438,0 -5.6875,-2.7188 -5.6875,-6.9844 0,-4.39062 2.09374,-7.09375 5.5,-7.09375 1.42187,0 2.73442,0.40625 3.45312,1.09375 0.6563,0.57812 1.0156,1.28125 1.2656,2.57812 z" style="fill:#000000;fill-rule:nonzero;stroke:none" transform="translate(34.35)" id="path1840"/>
      </g>
      <path d="M 16.05,0 16.9,1.5 0.85,10.75 0,9.3 Z" style="fill:#000000;fill-rule:nonzero;stroke:none" transform="translate(48.2156,50.25)" id="path1843"/>
      <path d="M 16.1,0 16.95,1.5 0.85,10.75 0,9.3 Z" style="fill:#000000;fill-rule:nonzero;stroke:none" transform="translate(51.1656,55.4)" id="path1845"/>
      <path d="M 14.7344,5.64062 C 14.0469,1.875 11.8438,0 8,0 5.64062,0 3.75,0.75 2.45312,2.1875 0.875,3.875 0,6.3125 0,9.07812 0,11.8906 0.890625,14.3125 2.53125,15.9687 3.89062,17.3594 5.625,18 7.90625,18 12.1719,18 14.5781,15.7187 15.0938,11.1875 H 12.7969 C 12.6094,12.3594 12.3594,13.1562 12,13.8437 11.2812,15.25 9.79688,16.0469 7.92188,16.0469 c -3.48438,0 -5.6875,-2.7188 -5.6875,-6.9844 0,-4.39063 2.09374,-7.09375 5.5,-7.09375 1.42187,0 2.73442,0.40625 3.45312,1.09375 0.6563,0.57812 1.0156,1.28125 1.2656,2.57812 z" style="fill:#000000;fill-rule:nonzero;stroke:none" transform="translate(102.256,59.55)" id="path1847"/>
      <path d="M 16.9,9.25 16.05,10.75 0,1.45 0.85,0 Z" style="fill:#000000;fill-rule:nonzero;stroke:none" transform="translate(84.8156,53.15)" id="path1849"/>
      <path d="M 14.7344,5.64062 C 14.0469,1.875 11.8438,0 8,0 5.64062,0 3.75,0.75 2.45312,2.1875 0.875,3.875 0,6.3125 0,9.07812 0,11.8906 0.890625,14.3125 2.53125,15.9688 3.89062,17.3594 5.625,18 7.90625,18 12.1719,18 14.5781,15.7188 15.0938,11.1875 H 12.7969 C 12.6094,12.3594 12.3594,13.1562 12,13.8438 11.2812,15.25 9.79688,16.0469 7.92188,16.0469 c -3.48438,0 -5.6875,-2.7188 -5.6875,-6.9844 0,-4.39062 2.09374,-7.09375 5.5,-7.09375 1.42187,0 2.73442,0.40625 3.45312,1.09375 0.6563,0.57812 1.0156,1.28125 1.2656,2.57812 z" style="fill:#000000;fill-rule:nonzero;stroke:none" transform="translate(136.656,39.7)" id="path1851"/>
      <path d="M 16.1,0 16.95,1.5 0.85,10.75 0,9.3 Z" style="fill:#000000;fill-rule:nonzero;stroke:none" transform="translate(116.916,50.25)" id="path1853"/>
      <path d="M 16.1,0 16.95,1.5 0.85,10.75 0,9.3 Z" style="fill:#000000;fill-rule:nonzero;stroke:none" transform="translate(119.916,55.4)" id="path1855"/>
      <path d="M 11.2344,9.96875 V 18 h 2.2344 V 0 H 11.2344 V 8 H 2.23438 V 0 H 0 V 18 H 2.23438 V 9.96875 Z" style="fill:#000000;fill-rule:nonzero;stroke:none" transform="translate(68.75)" id="path1857"/>
      <path d="M 0,17.75 H 1.7 V 0 H 0 Z" style="fill:#000000;fill-rule:nonzero;stroke:none" transform="translate(74.5656,20.2)" id="path1859"/>
      <path d="M 11.2344,9.96875 V 18 h 2.2344 V 0 H 11.2344 V 8 H 2.23438 V 0 H 0 V 18 H 2.23438 V 9.96875 Z" style="fill:#000000;fill-rule:nonzero;stroke:none" transform="translate(0,39.7)" id="path1861"/>
      <path d="M 0,1.45 0.85,0 16.5,9 15.65,10.5 Z" style="fill:#000000;fill-rule:nonzero;stroke:none" transform="translate(16.4656,53.4)" id="path1863"/>
      <path d="M 11.2344,9.96875 V 18 h 2.2344 V 0 H 11.2344 V 8 H 2.23438 V 0 H 0 V 18 H 2.23438 V 9.96875 Z" style="fill:#000000;fill-rule:nonzero;stroke:none" transform="translate(34.4,99.2)" id="path1865"/>
      <path d="M 0,17.7 H 1.7 V 0 H 0 Z" style="fill:#000000;fill-rule:nonzero;stroke:none" transform="translate(40.2156,80.05)" id="path1867"/>
      <path d="M 11.2344,9.96875 V 18 h 2.2344 V 0 H 11.2344 V 8 H 2.23438 V 0 H 0 V 18 H 2.23438 V 9.96875 Z" style="fill:#000000;fill-rule:nonzero;stroke:none" transform="translate(103.1,99.2)" id="path1869"/>
      <path d="M 0,17.7 H 1.7 V 0 H 0 Z" style="fill:#000000;fill-rule:nonzero;stroke:none" transform="translate(108.966,80.05)" id="path1871"/>
      <path d="M 11.2344,9.96875 V 18 h 2.2344 V 0 H 11.2344 V 8 H 2.23438 V 0 H 0 V 18 H 2.23438 V 9.96875 Z" style="fill:#000000;fill-rule:nonzero;stroke:none" transform="translate(171.85,59.55)" id="path1873"/>
      <path d="M 15.2,8.3 14.35,9.75 0,1.45 0.85,0 Z" style="fill:#000000;fill-rule:nonzero;stroke:none" transform="translate(153.516,53.15)" id="path1875"/>
      <path d="M 11.2344,9.96875 V 18 h 2.2344 V 0 H 11.2344 V 8 H 2.23438 V 0 H 0 V 18 H 2.23438 V 9.96875 Z" style="fill:#000000;fill-rule:nonzero;stroke:none" transform="translate(137.5)" id="path1877"/>
      <path d="M 0,17.75 H 1.7 V 0 H 0 Z" style="fill:#000000;fill-rule:nonzero;stroke:none" transform="translate(143.316,20.2)" id="path1879"/>
    </g>
  </g>
  <metadata id="metadata3188">
    <rdf:RDF>
      <cc:Work rdf:about="">
        <dc:title>Valence structural formula of 1,3-butadiene.eps</dc:title>
      </cc:Work>
    </rdf:RDF>
  </metadata>
</svg>