<?xml version="1.0" encoding="UTF-8"?>
<!-- Created with Inkscape (http://www.inkscape.org/) -->
<svg xmlns="http://www.w3.org/2000/svg" width="170" height="160">
<g id="all" fill="#000000" stroke="none">
  <path id="path6" d="m 130.54418,74.658406 c -1.1609,-6.411089 -4.84747,-9.536824 -11.26023,-9.536824 -3.92632,0 -7.09113,1.242547 -9.25649,3.647498 -2.64471,2.884306 -4.08611,7.051897 -4.08611,11.780489 0,4.808233 1.48214,8.935085 4.24757,11.780321 2.24349,2.325142 5.12797,3.406235 8.93525,3.406235 7.13338,0 11.13951,-3.84652 12.02158,-11.579964 0,0 -3.84635,0 -3.84635,0 -0.32107,2.003903 -0.72229,3.365329 -1.32235,4.5279 -1.20331,2.403449 -3.68657,3.766544 -6.81214,3.766544 -5.81119,0 -9.49776,-4.648616 -9.49776,-11.941943 0,-7.492181 3.52679,-12.10156 9.17652,-12.10156 2.36421,0 4.56864,0.722287 5.77028,1.844119 1.08276,1.001117 1.68283,2.243497 2.12462,4.407185 0,0 3.80561,0 3.80561,0 z"/>
  <path id="path10" d="m 64.59334,74.658406 c -1.160901,-6.411089 -4.847469,-9.536824 -11.260227,-9.536824 -3.926329,0 -7.091134,1.242547 -9.256492,3.647498 -2.644712,2.884306 -4.086113,7.051897 -4.086113,11.780489 0,4.808233 1.482141,8.935085 4.247567,11.780321 2.243497,2.325142 5.12797,3.406235 8.935253,3.406235 7.133375,0 11.139513,-3.84652 12.021584,-11.579964 0,0 -3.846352,0 -3.846352,0 -0.321073,2.003903 -0.722287,3.365329 -1.322356,4.5279 -1.203311,2.403449 -3.686568,3.766544 -6.812137,3.766544 -5.811186,0 -9.497754,-4.648616 -9.497754,-11.941943 0,-7.492181 3.526783,-12.10156 9.176515,-12.10156 2.364212,0 4.56864,0.722287 5.77028,1.844119 1.082763,1.001117 1.682832,2.243497 2.124619,4.407185 0,0 3.805613,0 3.805613,0 z"/>
  <path id="path14" d="m 69.121241,85.380676 c 0,0 0,-2.838724 0,-2.838724 0,0 33.141709,0 33.141709,0 0,0 0,2.838724 0,2.838724 0,0 -33.141709,0 -33.141709,0 z"/>
  <path id="path18" d="m 69.121241,75.362828 c 0,0 0,-2.838724 0,-2.838724 0,0 33.141709,0 33.141709,0 0,0 0,2.838724 0,2.838724 0,0 -33.141709,0 -33.141709,0 z"/>
  <path id="path22" d="m 159.07151,23.908823 c 0,0 0,13.303385 0,13.303385 0,0 3.72747,0 3.72747,0 0,0 0,-29.2122113 0,-29.2122113 0,0 -3.72747,0 -3.72747,0 0,0 0,12.6233903 0,12.6233903 0,0 -15.02677,0 -15.02677,0 0,0 0,-12.6233903 0,-12.6233903 0,0 -3.72564,0 -3.72564,0 0,0 0,29.2122113 0,29.2122113 0,0 3.76638,0 3.76638,0 0,0 0,-13.303385 0,-13.303385 0,0 14.98603,0 14.98603,0 z"/>
  <path id="path26" d="m 138.82878,40.80092 c 0,0 2.50446,1.420197 2.50446,1.420197 0,0 -12.68861,22.037929 -12.68861,22.037929 0,0 -2.50446,-1.418527 -2.50446,-1.418527 0,0 12.68861,-22.039599 12.68861,-22.039599 z"/>
  <path id="path30" d="m 159.07151,138.69663 c 0,0 0,13.30337 0,13.30337 0,0 3.72747,0 3.72747,0 0,0 0,-29.21221 0,-29.21221 0,0 -3.72747,0 -3.72747,0 0,0 0,12.62349 0,12.62349 0,0 -15.02677,0 -15.02677,0 0,0 0,-12.62349 0,-12.62349 0,0 -3.72564,0 -3.72564,0 0,0 0,29.21221 0,29.21221 0,0 3.76638,0 3.76638,0 0,0 0,-13.30337 0,-13.30337 0,0 14.98603,0 14.98603,0 z"/>
  <path id="path34" d="m 142.50233,117.68757 c 0,0 -2.42132,1.42019 -2.42132,1.42019 0,0 -12.77342,-21.956447 -12.77342,-21.956447 0,0 2.50446,-1.418527 2.50446,-1.418527 0,0 12.69028,21.954784 12.69028,21.954784 z"/>
  <path id="path38" d="m 26.752409,138.69663 c 0,0 0,13.30337 0,13.30337 0,0 3.727474,0 3.727474,0 0,0 0,-29.21221 0,-29.21221 0,0 -3.727474,0 -3.727474,0 0,0 0,12.62349 0,12.62349 0,0 -15.026705,0 -15.026705,0 0,0 0,-12.62349 0,-12.62349 0,0 -3.725704,0 -3.725704,0 0,0 0,29.21221 0,29.21221 0,0 3.766477,0 3.766477,0 0,0 0,-13.30337 0,-13.30337 0,0 14.985932,0 14.985932,0 z"/>
  <path id="path42" d="m 30.719491,119.10776 c 0,0 -2.421314,-1.42019 -2.421314,-1.42019 0,0 13.022868,-22.540161 13.022868,-22.540161 0,0 2.421314,1.420197 2.421314,1.420197 0,0 -13.022868,22.540154 -13.022868,22.540154 z"/>
  <path id="path46" d="m 26.752409,23.908823 c 0,0 0,13.303385 0,13.303385 0,0 3.727474,0 3.727474,0 0,0 0,-29.2122113 0,-29.2122113 0,0 -3.727474,0 -3.727474,0 0,0 0,12.6233903 0,12.6233903 0,0 -15.026705,0 -15.026705,0 0,0 0,-12.6233903 0,-12.6233903 0,0 -3.725704,0 -3.725704,0 0,0 0,29.2122113 0,29.2122113 0,0 3.766477,0 3.766477,0 0,0 0,-13.303385 0,-13.303385 0,0 14.985932,0 14.985932,0 z"/>
  <path id="path50" d="m 29.550408,42.387413 c 0,0 2.421314,-1.418527 2.421314,-1.418527 0,0 13.106016,22.623306 13.106016,22.623306 0,0 -2.504462,1.418527 -2.504462,1.418527 0,0 -13.022868,-22.623306 -13.022868,-22.623306 z"/>
</g>
</svg>