<?xml version="1.0" encoding="UTF-8"?>
<svg width="142pt" viewBox="0 0 142 93" xmlns:xlink="http://www.w3.org/1999/xlink" version="1.1" xmlns="http://www.w3.org/2000/svg" height="93pt" xmlns:inkscape="http://www.inkscape.org/namespaces/inkscape">
 <title>Structural formula of propadiene.eps</title>
 <defs>
  <clipPath id="Clip0">
   <path d="M0 0 L132.519 0 L132.519 86.75 L0 86.75 L0 0 Z"/>
  </clipPath>
 </defs>
 <g id="Hintergrund" inkscape:label="Hintergrund" inkscape:groupmode="layer">
  <g style="fill:none; stroke:none" clip-rule="evenodd" transform="translate(4.83437, 4.2) scale(1, 1)" id="Gruppe2" clip-path="url(#Clip0)">
   <g style="fill:none; stroke:none" transform="translate(19.0063, 34.4) scale(1, 1)" id="Gruppe1">
    <path style="fill:#000000; fill-rule:nonzero;stroke:none;" transform="translate(0, 0)" d="M14.7344 5.64062 C14.0469 1.875 11.8438 0 8 0 C5.64062 0 3.75 0.75 2.45312 2.1875 C0.875 3.875 0 6.3125 0 9.07812 C0 11.8906 0.890625 14.3125 2.53125 15.9688 C3.89062 17.3594 5.625 18 7.90625 18 C12.1719 18 14.5781 15.7188 15.0938 11.1875 L12.7969 11.1875 C12.6094 12.3594 12.3594 13.1562 12 13.8438 C11.2813 15.25 9.79688 16.0469 7.92188 16.0469 C4.4375 16.0469 2.23438 13.3281 2.23438 9.0625 C2.23438 4.67188 4.32812 1.96875 7.73438 1.96875 C9.15625 1.96875 10.4688 2.375 11.1875 3.0625 C11.8438 3.64062 12.2031 4.34375 12.4531 5.64062 L14.7344 5.64062 Z"/>
    <path style="fill:#000000; fill-rule:nonzero;stroke:none;" transform="translate(39.7, 0)" d="M14.7344 5.64062 C14.0469 1.875 11.8438 0 8 0 C5.64062 0 3.75 0.75 2.45312 2.1875 C0.875 3.875 0 6.3125 0 9.07812 C0 11.8906 0.890625 14.3125 2.53125 15.9688 C3.89062 17.3594 5.625 18 7.90625 18 C12.1719 18 14.5781 15.7188 15.0938 11.1875 L12.7969 11.1875 C12.6094 12.3594 12.3594 13.1562 12 13.8438 C11.2812 15.25 9.79688 16.0469 7.92188 16.0469 C4.4375 16.0469 2.23438 13.3281 2.23438 9.0625 C2.23438 4.67188 4.32812 1.96875 7.73438 1.96875 C9.15625 1.96875 10.4688 2.375 11.1875 3.0625 C11.8438 3.64062 12.2031 4.34375 12.4531 5.64062 L14.7344 5.64062 Z"/>
   </g>
   <path style="fill:#000000; fill-rule:nonzero;stroke:none;" transform="translate(36.4656, 39.1)" d="M0 1.7 L20 1.7 L20 0 L0 0 L0 1.7 Z"/>
   <path style="fill:#000000; fill-rule:nonzero;stroke:none;" transform="translate(36.4656, 45.05)" d="M0 1.7 L20 1.7 L20 0 L0 0 L0 1.7 Z"/>
   <path style="fill:#000000; fill-rule:nonzero;stroke:none;" transform="translate(98.3563, 34.4)" d="M14.7344 5.64062 C14.0469 1.875 11.8438 0 8 0 C5.64062 0 3.75 0.75 2.45312 2.1875 C0.875 3.875 0 6.3125 0 9.07812 C0 11.8906 0.890625 14.3125 2.53125 15.9688 C3.89062 17.3594 5.625 18 7.90625 18 C12.1719 18 14.5781 15.7188 15.0938 11.1875 L12.7969 11.1875 C12.6094 12.3594 12.3594 13.1562 12 13.8438 C11.2812 15.25 9.79688 16.0469 7.92188 16.0469 C4.4375 16.0469 2.23438 13.3281 2.23438 9.0625 C2.23438 4.67188 4.32812 1.96875 7.73438 1.96875 C9.15625 1.96875 10.4688 2.375 11.1875 3.0625 C11.8438 3.64062 12.2031 4.34375 12.4531 5.64062 L14.7344 5.64062 Z"/>
   <path style="fill:#000000; fill-rule:nonzero;stroke:none;" transform="translate(76.1656, 39.1)" d="M0 1.7 L20 1.7 L20 0 L0 0 L0 1.7 Z"/>
   <path style="fill:#000000; fill-rule:nonzero;stroke:none;" transform="translate(76.1656, 45.05)" d="M0 1.7 L20 1.7 L20 0 L0 0 L0 1.7 Z"/>
   <path style="fill:#000000; fill-rule:nonzero;stroke:none;" transform="translate(0, 0)" d="M11.2344 9.96875 L11.2344 18 L13.4688 18 L13.4688 0 L11.2344 0 L11.2344 8 L2.23438 8 L2.23438 0 L0 0 L0 18 L2.23438 18 L2.23438 9.96875 L11.2344 9.96875 Z"/>
   <path style="fill:#000000; fill-rule:nonzero;stroke:none;" transform="translate(12.8156, 20.05)" d="M0 0.85 L1.5 0 L9.4 13.7 L7.95 14.55 L0 0.85 Z"/>
   <path style="fill:#000000; fill-rule:nonzero;stroke:none;" transform="translate(0, 68.75)" d="M11.2344 9.96875 L11.2344 18 L13.4688 18 L13.4688 0 L11.2344 0 L11.2344 8 L2.23438 8 L2.23438 0 L0 0 L0 18 L2.23438 18 L2.23438 9.96875 L11.2344 9.96875 Z"/>
   <path style="fill:#000000; fill-rule:nonzero;stroke:none;" transform="translate(12.1156, 52.6)" d="M1.5 14.45 L0 13.6 L7.85 0 L9.35 0.85 L1.5 14.45 Z"/>
   <path style="fill:#000000; fill-rule:nonzero;stroke:none;" transform="translate(119.05, 68.75)" d="M11.2344 9.96875 L11.2344 18 L13.4688 18 L13.4688 0 L11.2344 0 L11.2344 8 L2.23438 8 L2.23438 0 L0 0 L0 18 L2.23438 18 L2.23438 9.96875 L11.2344 9.96875 Z"/>
   <path style="fill:#000000; fill-rule:nonzero;stroke:none;" transform="translate(111.216, 52.95)" d="M9.1 13.25 L7.65 14.1 L0 0.85 L1.45 0 L9.1 13.25 Z"/>
   <path style="fill:#000000; fill-rule:nonzero;stroke:none;" transform="translate(119.05, 0)" d="M11.2344 9.96875 L11.2344 18 L13.4688 18 L13.4688 0 L11.2344 0 L11.2344 8 L2.23438 8 L2.23438 0 L0 0 L0 18 L2.23438 18 L2.23438 9.96875 L11.2344 9.96875 Z"/>
   <path style="fill:#000000; fill-rule:nonzero;stroke:none;" transform="translate(110.466, 20.05)" d="M7.65 0 L9.15 0.85 L1.5 14.1 L0 13.25 L7.65 0 Z"/>
  </g>
 </g>
</svg>