<?xml version="1.0" encoding="UTF-8"?>
<svg width="181pt" version="1.1" xmlns="http://www.w3.org/2000/svg" height="104pt" viewBox="0 0 181 104" xmlns:xlink="http://www.w3.org/1999/xlink">
 <defs>
  <clipPath id="Clip0">
   <path d="M0 0 L181 0 L181 104 L0 104 L0 0 Z" transform="translate(0, 0)"/>
  </clipPath>
 </defs>
 <g id="Hintergrund">
  <g id="Gruppe1" clip-path="url(#Clip0)">
   <path style="fill:#000000; fill-rule:evenodd;stroke:none;" d="M14.7305 5.7109 C14.0352 1.875 11.8282 0 7.9883 0 C5.6368 0 3.7422 0.746 2.4454 2.1835 C0.8633 3.914 0 6.4101 0 9.2382 C0 12.1171 0.8868 14.5898 2.543 16.2929 C3.8868 17.6835 5.6133 18.332 7.8946 18.332 C12.1641 18.332 14.5625 16.0312 15.0899 11.3984 L12.7891 11.3984 C12.5977 12.5976 12.3555 13.414 11.9961 14.1093 C11.2774 15.5507 9.7891 16.3671 7.918 16.3671 C4.4375 16.3671 2.2305 13.582 2.2305 9.2148 C2.2305 4.7304 4.3438 1.9687 7.7266 1.9687 C9.1407 1.9687 10.461 2.4023 11.1797 3.0742 C11.8282 3.6718 12.1875 4.4179 12.4532 5.7109 L14.7305 5.7109 Z" transform="translate(42.9521, 44.5186)"/>
   <path style="fill:#000000; fill-rule:evenodd;stroke:none;" d="M14.7305 5.711 C14.0352 1.875 11.8282 0 7.9883 0 C5.6368 0 3.7422 0.7461 2.4454 2.1836 C0.8633 3.9141 0 6.4102 0 9.2383 C0 12.1172 0.8868 14.5899 2.543 16.293 C3.8868 17.6836 5.6133 18.3321 7.8946 18.3321 C12.1641 18.3321 14.5625 16.0313 15.0899 11.3985 L12.7891 11.3985 C12.5977 12.5977 12.3555 13.4141 11.9961 14.1094 C11.2774 15.5508 9.7891 16.3672 7.918 16.3672 C4.4375 16.3672 2.2305 13.5821 2.2305 9.2149 C2.2305 4.7305 4.3438 1.9688 7.7266 1.9688 C9.1407 1.9688 10.461 2.4024 11.1797 3.0743 C11.8282 3.6719 12.1875 4.418 12.4532 5.711 L14.7305 5.711 Z" transform="translate(82.6523, 44.6191)"/>
   <path style="fill:#000000; fill-rule:nonzero;stroke:none;" d="M20 0.0498 L20 1.75 L0 1.75 L0 0 L20 0.0498 Z" transform="translate(60.4502, 52)"/>
   <path style="fill:#000000; fill-rule:evenodd;stroke:none;" d="M14.73 5.711 C14.035 1.875 11.828 0 7.988 0 C5.636 0 3.742 0.7461 2.445 2.1836 C0.863 3.9141 0 6.4102 0 9.2383 C0 12.1172 0.886 14.5899 2.543 16.293 C3.886 17.6836 5.613 18.3321 7.894 18.3321 C12.164 18.3321 14.562 16.0313 15.089 11.3985 L12.789 11.3985 C12.597 12.5977 12.355 13.4141 11.996 14.1094 C11.277 15.5508 9.789 16.3672 7.918 16.3672 C4.437 16.3672 2.23 13.5821 2.23 9.2149 C2.23 4.7305 4.343 1.9688 7.726 1.9688 C9.14 1.9688 10.46 2.4024 11.179 3.0743 C11.828 3.6719 12.187 4.418 12.453 5.711 L14.73 5.711 Z" transform="translate(122.353, 44.6689)"/>
   <path style="fill:#000000; fill-rule:nonzero;stroke:none;" d="M20 0.0508 L20 1.75 L0 1.7002 L0 0 L20 0.0508 Z" transform="translate(100.1, 47.3496)"/>
   <path style="fill:#000000; fill-rule:nonzero;stroke:none;" d="M20 0.0508 L20 1.75 L0 1.7002 L0 0 L20 0.0508 Z" transform="translate(100.1, 52.0996)"/>
   <path style="fill:#000000; fill-rule:nonzero;stroke:none;" d="M20 0.0508 L20 1.75 L0 1.7002 L0 0 L20 0.0508 Z" transform="translate(100.1, 56.8496)"/>
   <path style="fill:#000000; fill-rule:evenodd;stroke:none;" d="M11.2265 9.5274 L11.2265 17.4922 L13.4609 17.4922 L13.4609 0 L11.2265 0 L11.2265 7.5586 L2.23047 7.5586 L2.23047 0 L0 0 L0 17.4922 L2.2539 17.4922 L2.2539 9.5274 L11.2265 9.5274 Z" transform="translate(4.14258, 44.7578)"/>
   <path style="fill:#000000; fill-rule:nonzero;stroke:none;" d="M0 1.7002 L0 0 L21 0.0498 L21 1.75 L0 1.7002 Z" transform="translate(19.75, 51.9502)"/>
   <path style="fill:#000000; fill-rule:evenodd;stroke:none;" d="M11.226 9.5274 L11.226 17.4922 L13.461 17.4922 L13.461 0 L11.226 0 L11.226 7.5586 L2.23 7.5586 L2.23 0 L0 0 L0 17.4922 L2.254 17.4922 L2.254 9.5274 L11.226 9.5274 Z" transform="translate(162.842, 45.0576)"/>
   <path style="fill:#000000; fill-rule:nonzero;stroke:none;" d="M20.75 0 L20.75 1.7002 L0 1.7002 L0 0 L20.75 0 Z" transform="translate(139.8, 52.2002)"/>
   <path style="fill:#000000; fill-rule:evenodd;stroke:none;" d="M11.2265 9.52738 L11.2265 17.4922 L13.4609 17.4922 L13.4609 0 L11.2265 0 L11.2265 7.55858 L2.2304 7.55858 L2.2304 0 L0 0 L0 17.4922 L2.2539 17.4922 L2.2539 9.52738 L11.2265 9.52738 Z" transform="translate(43.8926, 5.10742)"/>
   <path style="fill:#000000; fill-rule:nonzero;stroke:none;" d="M0.0498 0 L1.75 0 L1.6992 17.75 L0 17.75 L0.0498 0 Z" transform="translate(49.6504, 24.8496)"/>
   <path style="fill:#000000; fill-rule:evenodd;stroke:none;" d="M11.2266 9.5274 L11.2266 17.4922 L13.4609 17.4922 L13.4609 0 L11.2266 0 L11.2266 7.5586 L2.2305 7.5586 L2.2305 0 L0 0 L0 17.4922 L2.2539 17.4922 L2.2539 9.5274 L11.2266 9.5274 Z" transform="translate(43.7422, 84.5078)"/>
   <path style="fill:#000000; fill-rule:nonzero;stroke:none;" d="M1.7002 17.75 L0 17.7002 L0 0 L1.7002 0.0498 L1.7002 17.75 Z" transform="translate(49.5996, 64.7998)"/>
  </g>
 </g>
</svg>