<?xml version="1.0" encoding="UTF-8"?>
<svg width="181pt" version="1.1" xmlns="http://www.w3.org/2000/svg" height="104pt" viewBox="0 0 181 104" xmlns:xlink="http://www.w3.org/1999/xlink">
 <defs>
  <clipPath id="Clip0">
   <path d="M0 0 L181 0 L181 104 L0 104 L0 0 Z" transform="translate(0, 0)"/>
  </clipPath>
 </defs>
 <g id="Hintergrund">
  <g id="Gruppe1" clip-path="url(#Clip0)">
   <path style="fill:#000000; fill-rule:evenodd;stroke:none;" d="M14.7305 5.7109 C14.0352 1.875 11.8282 0 7.9883 0 C5.6368 0 3.7422 0.7461 2.4453 2.1836 C0.8633 3.914 0 6.4101 0 9.2382 C0 12.1171 0.8868 14.5898 2.5196 16.2929 C3.8868 17.6836 5.6133 18.332 7.8946 18.332 C12.1641 18.332 14.5625 16.0312 15.0899 11.3984 L12.7891 11.3984 C12.5977 12.5976 12.3555 13.414 11.9961 14.1093 C11.2774 15.5507 9.7891 16.3671 7.918 16.3671 C4.4375 16.3671 2.2305 13.582 2.2305 9.2148 C2.2305 4.7304 4.3164 1.9687 7.7266 1.9687 C9.1407 1.9687 10.461 2.3789 11.1797 3.0742 C11.8282 3.6718 12.1875 4.3945 12.4532 5.7109 L14.7305 5.7109 Z" transform="translate(42.5527, 44.0684)"/>
   <path style="fill:#000000; fill-rule:evenodd;stroke:none;" d="M14.7304 5.7109 C14.0351 1.875 11.8281 0 7.9882 0 C5.6367 0 3.7421 0.7461 2.4453 2.1836 C0.8632 3.914 0 6.4101 0 9.2382 C0 12.1171 0.8867 14.5898 2.5195 16.2929 C3.8867 17.6836 5.6132 18.332 7.8945 18.332 C12.164 18.332 14.5625 16.0312 15.0898 11.3984 L12.789 11.3984 C12.5976 12.5976 12.3554 13.414 11.996 14.1093 C11.2773 15.5507 9.789 16.3671 7.9179 16.3671 C4.4375 16.3671 2.2304 13.582 2.2304 9.2148 C2.2304 4.7304 4.3164 1.9687 7.7265 1.9687 C9.1406 1.9687 10.4609 2.3789 11.1796 3.0742 C11.8281 3.6718 12.1875 4.3945 12.4531 5.7109 L14.7304 5.7109 Z" transform="translate(82.252, 44.0684)"/>
   <path style="fill:#000000; fill-rule:nonzero;stroke:none;" d="M20 0 L20 1.6992 L0 1.6992 L0 0 L20 0 Z" transform="translate(58.8496, 52.4004)"/>
   <path style="fill:#000000; fill-rule:evenodd;stroke:none;" d="M11.2265 9.5273 L11.2265 17.4922 L13.4609 17.4922 L13.4609 0 L11.2265 0 L11.2265 7.5586 L2.2305 7.5586 L2.2305 0 L0 0 L0 17.4922 L2.2305 17.4922 L2.2305 9.5273 L11.2265 9.5273 Z" transform="translate(83.9424, 4.6582)"/>
   <path style="fill:#000000; fill-rule:nonzero;stroke:none;" d="M0 0 L1.7002 0 L1.7002 17.7002 L0 17.7002 L0 0 Z" transform="translate(87.8496, 24.3496)"/>
   <path style="fill:#000000; fill-rule:evenodd;stroke:none;" d="M11.2265 9.5274 L11.2265 17.4924 L13.4609 17.4924 L13.4609 0 L11.2265 0 L11.2265 7.5586 L2.2305 7.5586 L2.2305 0 L0 0 L0 17.4924 L2.2305 17.4924 L2.2305 9.5274 L11.2265 9.5274 Z" transform="translate(83.9424, 84.0576)"/>
   <path style="fill:#000000; fill-rule:nonzero;stroke:none;" d="M1.7002 17.7002 L0 17.7002 L0 0 L1.7002 0 L1.7002 17.7002 Z" transform="translate(87.8496, 64.3496)"/>
   <path style="fill:#000000; fill-rule:evenodd;stroke:none;" d="M14.731 5.7109 C14.035 1.875 11.828 0 7.988 0 C5.637 0 3.742 0.7461 2.445 2.1836 C0.863 3.914 0 6.4101 0 9.2382 C0 12.1171 0.887 14.5898 2.52 16.2929 C3.887 17.6836 5.613 18.332 7.895 18.332 C12.164 18.332 14.563 16.0312 15.09 11.3984 L12.789 11.3984 C12.598 12.5976 12.356 13.414 11.996 14.1093 C11.277 15.5507 9.789 16.3671 7.918 16.3671 C4.438 16.3671 2.231 13.582 2.231 9.2148 C2.231 4.7304 4.317 1.9687 7.727 1.9687 C9.141 1.9687 10.461 2.3789 11.18 3.0742 C11.828 3.6718 12.188 4.3945 12.453 5.7109 L14.731 5.7109 Z" transform="translate(121.952, 44.0684)"/>
   <path style="fill:#000000; fill-rule:nonzero;stroke:none;" d="M20 0 L20 1.6992 L0 1.6992 L0 0 L20 0 Z" transform="translate(98.5, 52.4004)"/>
   <path style="fill:#000000; fill-rule:evenodd;stroke:none;" d="M11.226 9.5273 L11.226 17.4922 L13.461 17.4922 L13.461 0 L11.226 0 L11.226 7.5586 L2.23 7.5586 L2.23 0 L0 0 L0 17.4922 L2.23 17.4922 L2.23 9.5273 L11.226 9.5273 Z" transform="translate(123.643, 4.6582)"/>
   <path style="fill:#000000; fill-rule:nonzero;stroke:none;" d="M0 0 L1.7 0 L1.7 17.7002 L0 17.7002 L0 0 Z" transform="translate(127.55, 24.3496)"/>
   <path style="fill:#000000; fill-rule:evenodd;stroke:none;" d="M11.226 9.5274 L11.226 17.4922 L13.461 17.4922 L13.461 0 L11.226 0 L11.226 7.5586 L2.23 7.5586 L2.23 0 L0 0 L0 17.4922 L2.23 17.4922 L2.23 9.5274 L11.226 9.5274 Z" transform="translate(163.342, 44.3574)"/>
   <path style="fill:#000000; fill-rule:nonzero;stroke:none;" d="M20.9 0 L20.9 1.6992 L0 1.6992 L0 0 L20.9 0 Z" transform="translate(138.2, 52.4004)"/>
   <path style="fill:#000000; fill-rule:evenodd;stroke:none;" d="M11.226 9.5274 L11.226 17.4924 L13.461 17.4924 L13.461 0 L11.226 0 L11.226 7.5586 L2.23 7.5586 L2.23 0 L0 0 L0 17.4924 L2.23 17.4924 L2.23 9.5274 L11.226 9.5274 Z" transform="translate(123.643, 84.0576)"/>
   <path style="fill:#000000; fill-rule:nonzero;stroke:none;" d="M1.7 17.7002 L0 17.7002 L0 0 L1.7 0 L1.7 17.7002 Z" transform="translate(127.55, 64.3496)"/>
   <path style="fill:#000000; fill-rule:evenodd;stroke:none;" d="M11.2266 9.5273 L11.2266 17.4922 L13.4609 17.4922 L13.4609 0 L11.2266 0 L11.2266 7.5586 L2.2305 7.5586 L2.2305 0 L0 0 L0 17.4922 L2.2305 17.4922 L2.2305 9.5273 L11.2266 9.5273 Z" transform="translate(44.2422, 4.6582)"/>
   <path style="fill:#000000; fill-rule:nonzero;stroke:none;" d="M0 0 L1.6992 0 L1.6992 17.7002 L0 17.7002 L0 0 Z" transform="translate(48.1504, 24.3496)"/>
   <path style="fill:#000000; fill-rule:evenodd;stroke:none;" d="M11.2266 9.5274 L11.2266 17.4922 L13.4609 17.4922 L13.4609 0 L11.2266 0 L11.2266 7.5586 L2.23047 7.5586 L2.23047 0 L0 0 L0 17.4922 L2.23047 17.4922 L2.23047 9.5274 L11.2266 9.5274 Z" transform="translate(4.54199, 44.3574)"/>
   <path style="fill:#000000; fill-rule:nonzero;stroke:none;" d="M0 1.6992 L0 0 L20.8506 0 L20.8506 1.6992 L0 1.6992 Z" transform="translate(18.2998, 52.4004)"/>
   <path style="fill:#000000; fill-rule:evenodd;stroke:none;" d="M11.2266 9.5274 L11.2266 17.4924 L13.4609 17.4924 L13.4609 0 L11.2266 0 L11.2266 7.5586 L2.2305 7.5586 L2.2305 0 L0 0 L0 17.4924 L2.2305 17.4924 L2.2305 9.5274 L11.2266 9.5274 Z" transform="translate(44.2422, 84.0576)"/>
   <path style="fill:#000000; fill-rule:nonzero;stroke:none;" d="M1.6992 17.7002 L0 17.7002 L0 0 L1.6992 0 L1.6992 17.7002 Z" transform="translate(48.1504, 64.3496)"/>
  </g>
 </g>
</svg>